# xmcd
#
# Track frame offsets:
#	150
#	13650
#	26700
#	41925
#	57450
#	71025
#	87150
#	100575
#	117225
#	134325
#	152025
#	164325
#	177450
#	192675
#	210750
#	226725
#	244275
#	260475
#
# Disc length: 3683 seconds
#
# Revision: 1
# Processed by: cddbd v1.5.1PL0 Copyright (c) Steve Scherf et al.
# Submitted via: audiograbber 1.83.01
#
DISCID=fd0e6112
DTITLE=Various Artist - CS202
DYEAR=1900
DGENRE=Karaoke
TTITLE0=Tim McGraw - Something Like That
TTITLE1=Martina McBride - I Love You
TTITLE2=SheDaisy - This Woman Needs
TTITLE3=John Michael Montgomery - Home To You
TTITLE4=Collin Raye - Start Over Georgia
TTITLE5=Faith Hill - You Give Me Love
TTITLE6=George Strait - What Do You Say to That
TTITLE7=Anita Cochran - For Crying Out Loud
TTITLE8=Alabama - Small Stuff
TTITLE9=Doug Stone - Make Up In Love
TTITLE10=The Wilkinsons - Yodelin Blues
TTITLE11=Shane Minor - Ordinary Love
TTITLE12=George Jones - Choices
TTITLE13=Mark Wills - She's In Love
TTITLE14=Mark Chesnutt - This Heartache Never Sleeps
TTITLE15=Terri Clark - Unsung Hero
TTITLE16=Sawyer Brown - I'm In Love With HerI
TTITLE17=Mindy McCready - One In A Million
EXTD=
EXTT0=
EXTT1=
EXTT2=
EXTT3=
EXTT4=
EXTT5=
EXTT6=
EXTT7=
EXTT8=
EXTT9=
EXTT10=
EXTT11=
EXTT12=
EXTT13=
EXTT14=
EXTT15=
EXTT16=
EXTT17=
PLAYORDER=
